PathFileType	4	(X/Y/Z)	OpenSim_Sub03_EMGBaseline_Accel.trc
DataRate	CameraRate	NumFrames	NumMarkers	Units	OrigDataRate	OrigDataStartFrame	OrigNumFrames
100	100	23	8	m	100	2765	7372
Frame#	Time	torso_imu_offset_imu	pelvis_imu_offset_imu	tibia_r_imu_offset_imu	femur_r_imu_offset_imu	tibia_l_imu_offset_imu	femur_l_imu_offset_imu	toes_r_imu_offset_imu	toes_l_imu_offset_imu
				X1	Y1	Z1	X2	Y2	Z2	X3	Y3	Z3	X4	Y4	Z4	X5	Y5	Z5	X6	Y6	Z6	X7	Y7	Z7	X8		Y8	Z8	

2765	27.64000000	9.15679532	-0.24681511	5.76600741	9.46918765	1.54425753	0.89310037	9.90703343	1.01805129	-0.13512990	9.56076083	-0.45299139	-0.27259129	11.99587160	-3.79187588	-0.19906029	7.98010667	4.48285165	-0.00731100	6.55573312	-2.07463331	7.29848938	19.27010888	-1.90773652	9.89851385
2766	27.65000000	9.19128483	-0.27351469	5.72866122	9.41358087	1.65260623	0.92750435	9.88244459	0.66335481	-0.26594531	9.58470961	-0.62942457	-0.29928534	11.75321960	-2.08500393	0.46011174	7.99279992	4.35938701	-0.15008719	6.67537634	-1.89970795	7.17702864	19.96003420	-0.27937422	8.57761418
2767	27.66000000	9.27187131	-0.26489390	5.70603924	9.45269986	1.69526699	0.94072259	10.01959070	0.45488609	-0.22676396	9.56447523	-1.13424524	-0.38698817	11.34613145	-0.25995140	1.20043124	8.23143136	4.21918985	-0.12649764	6.72742776	-1.82091549	7.15053525	20.13076655	0.86786789	6.57796149
2768	27.67000000	9.40083999	-0.26502283	5.77300260	9.46609642	1.65867120	1.12421059	10.05549382	0.53550134	-0.24910141	9.57056772	-0.96492014	-0.43573622	11.23120372	1.01733489	1.31436624	8.72030106	4.29109657	-0.02172698	6.67104625	-2.00120210	7.20069449	19.36406471	0.07674244	3.00203510
2769	27.68000000	9.53764118	-0.28947327	5.79858280	9.44591546	1.68353085	1.22734540	10.08919057	0.71302443	-0.21997244	9.60325652	-1.27539836	-0.40102017	12.12876929	1.46388985	1.16046218	9.42185228	4.53457228	0.13512116	6.64963237	-1.94957822	7.28807191	19.26970818	-1.79051108	0.27809868
2770	27.69000000	9.71110722	-0.31609171	5.83735834	9.46478241	1.31087589	1.13003788	10.18698686	0.74525013	-0.15967607	9.72821005	-1.38634361	-0.41373339	12.68443609	0.15575679	0.37387338	9.61169517	4.80402698	0.69227043	6.81596497	-1.82445181	7.21777991	20.15874700	-1.82586605	-0.50877277
2771	27.70000000	9.62784944	-0.34690511	5.87075404	9.41139828	0.67795061	1.18074129	10.23464928	0.77290936	0.05772277	9.77607768	-1.53800599	-0.33227491	11.68893128	-2.36057210	-1.52717004	9.40532490	5.19976515	1.24933721	6.98579960	-1.76501133	7.00596911	17.94897391	-2.25025382	-4.02673316
2772	27.71000000	9.48382980	-0.34923853	5.82380608	9.56927929	0.54003038	1.16534859	10.24690255	0.50318091	0.18967234	9.71610258	-2.03468853	-0.24504460	10.45675456	-2.88842494	-2.52561075	9.26817971	5.91776029	1.16615213	7.06849520	-1.71627800	7.07452786	18.22050544	-2.60889946	-7.94628904
2773	27.72000000	9.51799777	-0.36822619	5.71737661	9.66602814	0.05955349	0.96530147	10.35968702	0.16594817	0.46653749	9.70834507	-2.24413604	-0.28533842	10.08335451	-0.74066646	-1.72853761	9.26752273	6.77751800	0.43946278	6.89831109	-1.49497353	7.17591693	18.69174791	-2.53476400	-11.03589629
2774	27.73000000	9.56745108	-0.39258222	5.65389357	9.70376383	-0.11841914	0.72396097	10.39568775	0.00714691	0.62377838	9.72499260	-2.11617076	-0.41796549	10.36642864	0.69874648	-0.74534676	9.52860361	7.21099210	0.33245868	6.75531970	-1.22737256	7.42943334	21.80026898	-0.46239426	-12.78044498
2775	27.74000000	9.63366084	-0.37324929	5.59545447	9.65611622	0.33943447	0.52897404	10.52708903	-0.23543484	0.84534476	9.79868670	-2.21992275	-0.44854862	10.22256355	0.11117512	-0.85700845	9.80525006	6.93271455	0.94087988	6.95692320	-1.39027602	7.40008987	14.85158491	-4.81904739	-14.16875217
2776	27.75000000	9.78021614	-0.29664919	5.52705723	9.54046247	0.82176120	0.44167557	10.76711725	-0.61973577	0.90794171	9.74865496	-2.82060511	-0.41424574	10.63159164	-2.02158878	-1.37536820	10.20233888	5.92612354	1.51885823	6.99924025	-1.39352518	7.38247180	6.39562679	-3.36689809	3.99966070
2777	27.76000000	10.25921070	-0.12414772	5.57079098	9.68157398	1.15585279	0.66875696	11.19091356	-0.91008630	0.74707833	9.87193446	-3.04151591	-0.31212152	10.65537968	-3.84170753	-2.35170001	11.57333180	4.05063539	1.62336389	6.83749896	-1.69190643	7.59207443	8.48740071	10.95230303	27.24189304
2778	27.77000000	11.19781696	0.10855051	5.74428796	10.27361293	0.97461116	1.25388430	12.04615495	-1.06216190	0.69042071	10.75322806	-2.62511991	-0.10343174	10.32259674	2.03133633	0.48095231	12.15765220	1.05155947	0.95069541	6.68298399	-2.27079730	7.82909561	-0.52991655	5.92031754	17.73639996
2779	27.78000000	12.06115156	0.33405885	5.94079001	11.28039767	0.64751814	1.81392154	12.56340851	-1.13297155	0.94383631	11.19154234	-2.92905969	0.19710050	13.20040158	9.05736434	6.31076317	11.33221671	-2.34637004	0.75920197	6.48371061	-2.62980559	7.81246186	3.75106421	0.48156522	8.36429929
2780	27.79000000	12.07470877	0.43380064	5.89536635	12.31044682	0.51260992	2.20861529	12.60427563	-1.22920158	1.14413122	10.73878917	-3.71517352	0.28007756	13.47825300	7.50230462	5.15290480	11.31467401	-3.90572392	2.20753510	6.58931918	-2.78664242	7.45621320	18.73793786	3.01544087	12.04491013
2781	27.80000000	11.42986621	0.62353605	5.77498652	13.02376612	0.58838375	2.88412595	12.57782007	-1.37453136	1.26914360	10.64080148	-3.29156916	0.11980722	11.27241697	5.97643221	0.86014792	13.09490298	-1.73587442	3.76118876	6.25227968	-2.73167678	7.70168638	23.57002144	3.89764071	15.52470636
2782	27.81000000	11.20055706	0.92741401	5.77476685	13.26355425	0.37281934	3.71400574	12.79219190	-1.76562067	1.14272543	10.20657816	-3.21413311	0.11338256	13.69898162	3.58492415	-0.80943891	15.11321460	3.39840922	3.82089732	5.87497960	-2.88973672	7.70548793	14.28720613	-2.02295158	12.87896440
2783	27.82000000	11.72395554	1.17341416	5.77368526	12.89635128	-0.47445962	4.20638012	13.44667161	-2.34430970	0.87467253	9.53518590	-3.51408434	0.30495778	14.72827475	-3.07646749	-0.84806930	14.72554090	7.71457649	2.27554686	5.70118455	-3.49325898	7.33536604	11.26544833	-4.19749046	12.79099424
2784	27.83000000	12.13293420	1.33035936	5.69724229	11.99257523	-1.48974219	4.34593998	14.06519550	-2.94595924	1.01413097	9.58622255	-2.84921942	0.57225573	12.59940985	-7.90011607	1.82627484	11.84174469	7.96647240	-1.19911682	6.33723322	-4.17487317	6.98279674	11.48372228	-3.58011516	11.41039086
2785	27.84000000	11.58223709	1.47902072	5.47949099	10.96614657	-1.73831275	4.33758115	13.86618919	-3.76608559	1.29272395	9.87330935	-1.72661492	1.01231751	11.78327228	-8.70062232	3.65399147	9.73163869	3.72337593	-4.26168661	8.27357947	-5.21530244	6.78613642	9.78730365	-4.27256215	10.74108918
2786	27.85000000	10.54600597	1.63661817	5.25925838	10.15258806	-0.97403289	4.25038227	12.73635498	-4.13594425	1.09191004	9.55407903	-1.00553045	1.65466589	10.70188185	-5.53876350	3.18937276	8.82218295	-1.61755381	-4.49721261	10.56569570	-4.62787391	7.88333191	5.79635493	-1.64784944	11.11380722
2787	27.86000000	9.55460549	1.85274753	5.08724203	9.48065496	0.32209995	4.21158133	11.73302460	-2.83111433	0.19204611	9.24662693	-0.57999673	2.18670208	8.74930017	-0.51465839	1.35972261	7.27467457	-4.91657365	-3.31002485	12.52640485	-3.72927699	8.55315840	4.74024168	1.72883510	11.22455952
